<svg width="512" height="512" viewBox="0 0 512 512" fill="none" xmlns="http://www.w3.org/2000/svg">
<g clip-path="url(#clip0_15_3)">
<g filter="url(#filter0_d_15_3)">
<path d="M178.964 181.662C178.964 181.662 395.231 135.769 437.511 181.662C476.716 224.218 464.425 270.969 457.934 328.501C453.178 370.664 446.94 401.678 426.341 432.445C405.742 463.212 341.397 486.629 279.969 501.353C252.83 507.858 214.636 510.411 191.604 511.397C178.932 511.94 166.805 506.58 158.346 497.131L102.155 434.366C123.135 455.305 149.864 469.564 178.964 475.341C208.063 481.117 238.225 478.152 265.637 466.821C293.048 455.489 316.476 436.3 332.96 411.679C349.443 387.058 358.241 358.112 358.241 328.501C358.241 298.89 349.443 269.944 332.96 245.323C316.476 220.703 293.048 201.513 265.637 190.182C238.226 178.85 208.063 175.885 178.964 181.662Z" fill="#F7F7F7"/>
<path d="M332.036 330.338C332.036 330.338 115.769 376.231 73.4888 330.338C34.2837 287.783 46.5749 241.031 53.0656 183.499C57.8224 141.336 64.0602 110.323 84.6589 79.5551C105.258 48.7877 169.602 25.3705 231.031 10.6467C258.17 4.14186 296.364 1.58916 319.396 0.603017C332.067 0.060485 344.195 5.4197 352.654 14.8692L408.845 77.6336C387.865 56.6954 361.136 42.4363 332.036 36.6595C302.937 30.8826 272.774 33.8475 245.363 45.1792C217.952 56.5109 194.524 75.7003 178.04 100.321C161.557 124.942 152.759 153.888 152.759 183.499C152.759 213.11 161.557 242.056 178.04 266.677C194.524 291.297 217.952 310.487 245.363 321.818C272.774 333.15 302.937 336.115 332.036 330.338Z" fill="#F7F7F7"/>
</g>
</g>
<defs>
<filter id="filter0_d_15_3" x="46.0001" y="0.56543" width="467" height="558.869" filterUnits="userSpaceOnUse" color-interpolation-filters="sRGB">
<feFlood flood-opacity="0" result="BackgroundImageFix"/>
<feColorMatrix in="SourceAlpha" type="matrix" values="0 0 0 0 0 0 0 0 0 0 0 0 0 0 0 0 0 0 127 0" result="hardAlpha"/>
<feOffset dx="24" dy="24"/>
<feGaussianBlur stdDeviation="12"/>
<feComposite in2="hardAlpha" operator="out"/>
<feColorMatrix type="matrix" values="0 0 0 0 0.101961 0 0 0 0 0.101961 0 0 0 0 0.101961 0 0 0 0.2 0"/>
<feBlend mode="normal" in2="BackgroundImageFix" result="effect1_dropShadow_15_3"/>
<feBlend mode="normal" in="SourceGraphic" in2="effect1_dropShadow_15_3" result="shape"/>
</filter>
<clipPath id="clip0_15_3">
<rect width="512" height="512" rx="256" fill="white"/>
</clipPath>
</defs>
</svg>
